# xmcd CD database file
#
# Track frame offsets:
#	187
#	19117
#	33275
#	47070
#	59447
#	73572
#	87567
#	97507
#	105607
#	113052
#	124797
#	141000
#
# Disc length: 2183 seconds
#
# Revision: 0
# Processed by: cddbd v1.5.1PL0 Copyright (c) Steve Scherf et al.
# Submitted via: CDex 1.51
#
DISCID=9808850c
DTITLE=平沢進 - デトネイター・オーガン（１）
DYEAR=1991
DGENRE=Anime
TTITLE0=Detonator Orgun
TTITLE1=KUMI Jefferson
TTITLE2=D.D.F
TTITLE3=YOHKO Mitsurugi
TTITLE4=EVOLUDERS
TTITLE5=City-No.5
TTITLE6=MICHI Kanzaki
TTITLE7=P.A.S.F.U
TTITLE8=PROPAGANDA of E.D.F
TTITLE9=MUSEUM
TTITLE10=FUHRER MEEK
TTITLE11=バンディリア旅行団
EXTD=YEAR: 1991
EXTT0=
EXTT1=
EXTT2=
EXTT3=
EXTT4=
EXTT5=
EXTT6=
EXTT7=
EXTT8=
EXTT9=
EXTT10=
EXTT11=
PLAYORDER=
